# xmcd CD database file
#
# Track frame offsets:
#	150
#	46811
#	78079
#	95879
#	138108
#	164744
#
# Disc length: 2564 seconds
#
# Revision: 0
# Processed by: cddbd v1.5.1PL0 Copyright (c) Steve Scherf et al.
# Submitted via: CDex 1.51
#
DISCID=460a0206
DTITLE=Alfredo Remus - Nardis
DYEAR=1985
DGENRE=Jazz
TTITLE0=Beautiful Love
TTITLE1=500 Millas
TTITLE2=Pepi's
TTITLE3=Amor Por Todo Eso
TTITLE4=Nardis
TTITLE5=Amor en Paz
EXTD=YEAR: 1985
EXTT0=
EXTT1=
EXTT2=
EXTT3=
EXTT4=
EXTT5=
PLAYORDER=
